<?xml version="1.0" encoding="utf-8"?>
<!-- Generator: Adobe Illustrator 21.0.0, SVG Export Plug-In . SVG Version: 6.00 Build 0)  -->
<svg version="1.1" id="Layer_1" xmlns="http://www.w3.org/2000/svg" xmlns:xlink="http://www.w3.org/1999/xlink" x="0px" y="0px"
	 viewBox="0 0 179.7 174.4" style="enable-background:new 0 0 179.7 174.4;" xml:space="preserve">
<style type="text/css">
	.st0{fill:url(#SVGID_1_);}
	.st1{fill:#004574;}
</style>
<linearGradient id="SVGID_1_" gradientUnits="userSpaceOnUse" x1="8.7855" y1="647.4985" x2="168.1174" y2="628.7814" gradientTransform="matrix(1 0 0 -1 0 794)">
	<stop  offset="0.2" style="stop-color:#09508C"/>
	<stop  offset="0.2704" style="stop-color:#0D518A"/>
	<stop  offset="0.3221" style="stop-color:#0B5388"/>
	<stop  offset="0.3677" style="stop-color:#175884"/>
	<stop  offset="0.4098" style="stop-color:#1E5E7C"/>
	<stop  offset="0.4495" style="stop-color:#296673"/>
	<stop  offset="0.4875" style="stop-color:#326F67"/>
	<stop  offset="0.5234" style="stop-color:#3D7A54"/>
	<stop  offset="0.5355" style="stop-color:#3F7E4C"/>
	<stop  offset="0.624" style="stop-color:#418755"/>
	<stop  offset="0.7405" style="stop-color:#429868"/>
	<stop  offset="0.9419" style="stop-color:#906F54"/>
</linearGradient>
<path class="st0" d="M179.7,147.7H1.4v-9.9h178.3V147.7z M179.7,151.2H1.4v9.9h178.3V151.2z M179.7,164.5H1.4v9.9h178.3V164.5z"/>
<polygon class="st1" points="1.3,110.8 6.8,110.8 9.8,121.7 12.7,110.8 18.3,110.8 18.3,128.4 14.9,128.4 14.9,112.7 10.7,128.4 
	8.9,128.4 4.6,112.7 4.6,128.4 1.3,128.4 "/>
<path class="st1" d="M29.2,115.6l-2,6.2h4L29.2,115.6z M27.4,110.8h3.7l5.7,17.7h-3.4l-1.3-4.1h-5.6l-1.3,4.1h-3.4L27.4,110.8z"/>
<polygon class="st1" points="40.3,110.8 43.9,110.8 51.2,122.6 51.2,110.8 54.6,110.8 54.6,128.4 51.2,128.4 43.7,116.1 43.7,128.4 
	40.3,128.4 "/>
<path class="st1" d="M65.4,115.6l-2,6.2h4L65.4,115.6z M63.6,110.8h3.7l5.7,17.7h-3.4l-1.3-4.1h-5.6l-1.3,4.1h-3.4L63.6,110.8z"/>
<g>
	<path class="st1" d="M87.3,126.3c-0.7,0.8-1.4,1.3-2.1,1.7c-1,0.5-2.1,0.8-3.2,0.8c-1.2,0-2.3-0.3-3.4-0.9c-1.1-0.6-2-1.5-2.7-2.8
		c-0.7-1.3-1-3-1-5.2c0-2.3,0.4-4.1,1.1-5.5c0.7-1.4,1.7-2.4,3-3.1c1.3-0.7,2.6-1,4-1c1.3,0,2.5,0.3,3.5,0.8c1,0.5,1.8,1.2,2.4,2.1
		c0.4,0.6,0.7,1.3,1,2.3l-2.8,0.9c-0.3-1-0.7-1.7-1.2-2.1c-0.7-0.7-1.6-1-2.7-1c-1.3,0-2.4,0.4-3.3,1.3c-0.9,0.9-1.3,2.5-1.3,4.8
		c0,1.6,0.2,2.9,0.5,3.7c0.4,0.8,0.9,1.5,1.6,1.9c0.7,0.4,1.5,0.7,2.2,0.7c0.6,0,1.2-0.1,1.8-0.4c0.6-0.2,1-0.5,1.4-0.9
		c0.4-0.4,0.6-0.7,0.8-1.1c0.2-0.4,0.3-0.8,0.5-1.4h-4.6v-2.6h7.4v9h-2.8V126.3z"/>
</g>
<polygon class="st1" points="94.6,110.8 106.4,110.8 106.4,113.9 98,113.9 98,117.7 103.1,117.7 103.1,120.4 98,120.4 98,125.4 
	106.4,125.4 106.4,128.4 94.6,128.4 "/>
<polygon class="st1" points="110.5,110.8 116,110.8 118.9,121.7 121.9,110.8 127.4,110.8 127.4,128.4 124.1,128.4 124.1,112.7 
	119.8,128.4 118,128.4 113.8,112.7 113.8,128.4 110.5,128.4 "/>
<polygon class="st1" points="132.5,110.8 144.3,110.8 144.3,113.9 135.9,113.9 135.9,117.7 141,117.7 141,120.4 135.9,120.4 
	135.9,125.4 144.3,125.4 144.3,128.4 132.5,128.4 "/>
<polygon class="st1" points="148.4,110.8 152.1,110.8 159.3,122.6 159.3,110.8 162.8,110.8 162.8,128.4 159.3,128.4 151.9,116.1 
	151.9,128.4 148.4,128.4 "/>
<polygon class="st1" points="166.6,110.8 180,110.8 180,113.8 175,113.8 175,128.4 171.6,128.4 171.6,113.8 166.6,113.8 "/>
<path class="st1" d="M7.6,88l-2,6.2h4L7.6,88z M5.7,83.2h3.7l5.7,17.7h-3.4l-1.3-4.1H4.8l-1.3,4.1H0L5.7,83.2z"/>
<g>
	<path class="st1" d="M22.2,86.2v11.6h2.4c0.9,0,1.6-0.2,2.3-0.7c0.7-0.5,1.2-1.1,1.5-1.8c0.5-1.1,0.8-2.2,0.8-3.5
		c0-1.7-0.5-3.1-1.5-4.1c-1-1-2.3-1.5-3.8-1.5H22.2z M18.7,83.2h6.4c1.5,0,2.9,0.4,4.1,1.1c1.2,0.7,2.1,1.8,2.7,3.1
		c0.6,1.4,0.9,2.8,0.9,4.4c0,1.6-0.3,3-0.8,4.3c-0.5,1.3-1.2,2.3-2.1,3c-0.6,0.5-1.4,0.9-2.4,1.3c-1,0.3-2,0.5-3.1,0.5h-5.8V83.2z"
		/>
</g>
<polygon class="st1" points="34.2,83.2 37.5,83.2 41.2,95.3 45,83.2 48.3,83.2 42.9,100.8 39.6,100.8 "/>
<path class="st1" d="M56.9,88l-2,6.2h4L56.9,88z M55.1,83.2h3.7l5.7,17.7h-3.4l-1.3-4.1h-5.6l-1.3,4.1h-3.4L55.1,83.2z"/>
<polygon class="st1" points="68,83.2 71.6,83.2 78.9,95 78.9,83.2 82.3,83.2 82.3,100.8 78.9,100.8 71.4,88.5 71.4,100.8 68,100.8 
	"/>
<g>
	<path class="st1" d="M100.7,95.8c-0.2,1-0.6,1.8-0.9,2.4c-0.6,0.9-1.4,1.7-2.4,2.2c-1,0.5-2.1,0.8-3.4,0.8c-1.4,0-2.6-0.3-3.9-1
		c-1.2-0.7-2.2-1.7-2.8-3.1c-0.6-1.4-1-2.9-1-4.8c0-1.9,0.3-3.6,1-5.1c0.6-1.5,1.6-2.6,2.8-3.3c1.2-0.7,2.5-1.1,3.9-1.1
		c1,0,2,0.2,3,0.7c1,0.4,1.8,1.1,2.4,1.9c0.4,0.6,0.8,1.3,1.1,2.3l-3.2,0.9c-0.2-1-0.6-1.7-1.2-2.2c-0.6-0.5-1.3-0.7-2.1-0.7
		c-1.2,0-2.2,0.6-2.9,1.8c-0.7,1.2-1,2.7-1,4.7c0,1.2,0.2,2.3,0.5,3.2c0.3,0.9,0.7,1.6,1.3,2c0.6,0.4,1.2,0.7,1.8,0.7
		c1,0,1.8-0.4,2.6-1c0.5-0.5,1-1.2,1.3-2.1L100.7,95.8z"/>
</g>
<polygon class="st1" points="104.7,83.2 116.5,83.2 116.5,86.2 108.2,86.2 108.2,90.1 113.3,90.1 113.3,92.8 108.2,92.8 108.2,97.8 
	116.5,97.8 116.5,100.8 104.7,100.8 "/>
<g>
	<path class="st1" d="M124.2,86.2v11.6h2.4c0.9,0,1.6-0.2,2.3-0.7c0.7-0.5,1.2-1.1,1.5-1.8c0.5-1.1,0.8-2.2,0.8-3.5
		c0-1.7-0.5-3.1-1.5-4.1c-1-1-2.3-1.5-3.8-1.5H124.2z M120.7,83.2h6.4c1.5,0,2.9,0.4,4.1,1.1c1.2,0.7,2.1,1.8,2.7,3.1
		c0.6,1.4,0.9,2.8,0.9,4.4c0,1.6-0.3,3-0.8,4.3c-0.5,1.3-1.2,2.3-2.1,3c-0.6,0.5-1.4,0.9-2.4,1.3c-1,0.3-2,0.5-3.1,0.5h-5.8V83.2z"
		/>
</g>
<polygon class="st1" points="1.3,55.6 12.2,55.6 12.2,58.6 4.8,58.6 4.8,63.2 9.1,63.2 9.1,66.3 4.8,66.3 4.8,73.2 1.3,73.2 "/>
<g>
	<path class="st1" d="M22.9,58.2c-1.2,0-2.2,0.5-3,1.4c-0.8,1-1.2,2.5-1.2,4.7c0,2.2,0.4,3.7,1.2,4.7c0.8,0.9,1.8,1.4,3,1.4
		c1.2,0,2.1-0.5,2.9-1.4c0.8-0.9,1.2-2.5,1.2-4.6c0-2.4-0.5-4.1-1.4-5.1C24.9,58.6,24,58.2,22.9,58.2 M22.5,55.2c1.7,0,3,0.3,4,0.8
		c1.3,0.7,2.3,1.8,3,3.1c0.7,1.4,1.1,3.1,1.1,5.3c0,3-0.7,5.2-2.1,6.8c-1.4,1.5-3.3,2.3-5.6,2.3c-2.3,0-4.2-0.8-5.7-2.3
		c-1.4-1.6-2.2-3.8-2.2-6.8c0-1.8,0.3-3.4,0.9-4.8c0.3-0.8,0.8-1.5,1.4-2.2c0.7-0.7,1.4-1.2,2.3-1.6C20.6,55.4,21.5,55.2,22.5,55.2"
		/>
	<path class="st1" d="M38.3,58.6v4.8h2.8c1,0,1.9-0.3,2.6-0.9c0.5-0.4,0.7-0.9,0.7-1.6c0-0.7-0.3-1.2-0.8-1.6
		c-0.5-0.4-1.4-0.7-2.5-0.7H38.3z M34.9,55.6h4.8c2.6,0,4.3,0.2,5.3,0.6c1,0.4,1.7,1,2.3,1.9c0.5,0.9,0.8,1.9,0.8,3
		c0,1.1-0.2,1.9-0.7,2.6c-0.5,0.7-1.3,1.3-2.6,1.8l3.2,7.7h-3.4l-3-7.1h-3.2v7.1h-3.5V55.6z"/>
</g>
<polygon class="st1" points="1.3,28 5,28 12.2,39.8 12.2,28 15.7,28 15.7,45.6 12.2,45.6 4.8,33.3 4.8,45.6 1.3,45.6 "/>
<polygon class="st1" points="20.8,28 32.7,28 32.7,31 24.3,31 24.3,34.9 29.4,34.9 29.4,37.5 24.3,37.5 24.3,42.6 32.7,42.6 
	32.7,45.6 20.8,45.6 "/>
<polygon class="st1" points="35.5,28 48.9,28 48.9,31 43.9,31 43.9,45.6 40.5,45.6 40.5,31 35.5,31 "/>
<polygon class="st1" points="51,28 54.4,28 56.8,38.1 59.2,28 63.1,28 65.6,38.1 68,28 71.3,28 67.1,45.6 64.4,45.6 61.2,32.1 
	57.9,45.6 55.2,45.6 "/>
<g>
	<path class="st1" d="M81.2,30.6c-1.2,0-2.2,0.5-3,1.4c-0.8,1-1.2,2.5-1.2,4.7c0,2.2,0.4,3.7,1.2,4.7c0.8,0.9,1.8,1.4,3,1.4
		c1.2,0,2.1-0.5,2.9-1.4c0.8-0.9,1.2-2.5,1.2-4.6c0-2.4-0.5-4.1-1.4-5.1C83.3,31,82.3,30.6,81.2,30.6 M80.9,27.6c1.7,0,3,0.3,4,0.8
		c1.3,0.7,2.3,1.8,3,3.1c0.7,1.4,1.1,3.1,1.1,5.3c0,3-0.7,5.2-2.1,6.8c-1.4,1.5-3.3,2.3-5.6,2.3c-2.3,0-4.2-0.8-5.7-2.3
		c-1.4-1.6-2.2-3.8-2.2-6.8c0-1.8,0.3-3.4,0.9-4.8c0.3-0.8,0.8-1.5,1.4-2.2c0.6-0.7,1.4-1.2,2.3-1.6C78.9,27.8,79.9,27.6,80.9,27.6"
		/>
	<path class="st1" d="M96.7,31v4.8h2.8c1,0,1.9-0.3,2.6-0.9c0.5-0.4,0.7-0.9,0.7-1.6c0-0.7-0.3-1.2-0.8-1.6
		c-0.5-0.4-1.4-0.7-2.5-0.7H96.7z M93.2,28H98c2.6,0,4.3,0.2,5.3,0.6c1,0.4,1.7,1,2.3,1.9c0.5,0.9,0.8,1.9,0.8,3
		c0,1.1-0.2,1.9-0.7,2.6c-0.5,0.7-1.3,1.3-2.6,1.8l3.2,7.7h-3.4l-3-7.1h-3.2v7.1h-3.5V28z"/>
</g>
<polygon class="st1" points="110.7,28 114.2,28 114.2,35.8 120.5,28 124.3,28 118.8,34.8 124.7,45.6 121.4,45.6 116.8,37.3 
	114.2,40.6 114.2,45.6 110.7,45.6 "/>
<g>
	<path class="st1" d="M12.5,15.8c-0.7,0.8-1.4,1.3-2.1,1.7c-1,0.5-2.1,0.8-3.2,0.8c-1.2,0-2.3-0.3-3.4-0.9c-1.1-0.6-2-1.5-2.7-2.8
		c-0.7-1.3-1-3-1-5.2C0,7.2,0.4,5.4,1.1,4c0.7-1.4,1.7-2.4,3-3.1c1.3-0.7,2.6-1,4-1c1.3,0,2.5,0.3,3.5,0.8c1,0.5,1.8,1.2,2.4,2.1
		c0.4,0.6,0.7,1.3,1,2.3l-2.8,0.9c-0.3-1-0.7-1.7-1.2-2.1c-0.7-0.7-1.6-1-2.7-1C6.9,3,5.8,3.4,4.9,4.3C4.1,5.2,3.7,6.8,3.7,9.1
		c0,1.6,0.2,2.9,0.5,3.7c0.4,0.8,0.9,1.5,1.6,1.9c0.7,0.4,1.4,0.7,2.2,0.7c0.6,0,1.2-0.1,1.8-0.4c0.6-0.2,1.1-0.5,1.4-0.9
		c0.4-0.4,0.6-0.7,0.8-1.1c0.2-0.4,0.3-0.8,0.5-1.4H7.9V9h7.4v9h-2.8V15.8z"/>
</g>
<polygon class="st1" points="19.7,0.3 23.1,0.3 23.1,15 30.4,15 30.4,18 19.7,18 "/>
<g>
	<path class="st1" d="M40.3,3c-1.2,0-2.2,0.5-3,1.4c-0.8,1-1.2,2.5-1.2,4.7c0,2.2,0.4,3.7,1.2,4.7c0.8,0.9,1.8,1.4,3,1.4
		c1.2,0,2.1-0.5,2.9-1.4c0.8-0.9,1.2-2.5,1.2-4.6c0-2.4-0.5-4.1-1.4-5.1C42.4,3.4,41.4,3,40.3,3 M40,0c1.7,0,3,0.3,4,0.8
		c1.3,0.7,2.3,1.8,3,3.1c0.7,1.4,1.1,3.1,1.1,5.3c0,3-0.7,5.2-2.1,6.8c-1.4,1.5-3.3,2.3-5.6,2.3c-2.3,0-4.2-0.8-5.7-2.3
		c-1.4-1.6-2.2-3.8-2.2-6.8c0-1.8,0.3-3.4,0.9-4.8c0.3-0.8,0.8-1.5,1.4-2.2c0.7-0.7,1.4-1.2,2.3-1.6C38,0.2,39,0,40,0"/>
	<path class="st1" d="M55.7,10v5.3h2.8c1.4,0,2.5-0.2,3.1-0.7c0.6-0.5,0.9-1.1,0.9-2c0-0.7-0.3-1.4-0.8-1.9
		c-0.6-0.5-1.4-0.7-2.4-0.7H55.7z M55.7,3v4.2h3.7c0.8,0,1.5-0.2,2.1-0.7c0.4-0.3,0.6-0.8,0.6-1.4c0-0.6-0.2-1.1-0.7-1.5
		C61,3.2,60.3,3,59.3,3H55.7z M52.3,0.3h7.5c1.8,0,3.1,0.3,4,0.8C65,2,65.6,3.1,65.6,4.6c0,1.1-0.4,2-1.1,2.8
		c-0.5,0.5-1.2,0.9-2.2,1.3c0.8,0.2,1.4,0.5,1.9,0.9c0.6,0.4,1.1,1,1.4,1.7c0.3,0.7,0.5,1.3,0.5,2c0,0.8-0.2,1.6-0.6,2.3
		c-0.4,0.8-1.1,1.4-2,1.8C62.6,17.8,61.4,18,60,18h-7.8V0.3z"/>
</g>
<path class="st1" d="M75.6,5.1l-2,6.2h4L75.6,5.1z M73.8,0.3h3.7L83.2,18h-3.4l-1.3-4.1h-5.6L71.5,18H68L73.8,0.3z"/>
<polygon class="st1" points="86.6,0.3 90.1,0.3 90.1,15 97.4,15 97.4,18 86.6,18 "/>
</svg>
